# xmcd
#
# Track frame offsets: 
#        150
#        31820
#        47492
#        78580
#        100865
#        116635
#        147665
#        170685
#        192585
#        220942
#
# Disc length: 3031 seconds
#
# Revision: 0
# Processed by: cddbd v1.5.2PL0 Copyright (c) Steve Scherf et al.
# Submitted via: ExactAudioCopy v1.3
#
DISCID=900bd50a
DTITLE=Bruce Katz Band - Crescent Crawl
DYEAR=1992
DGENRE=Blues
TTITLE0=Crecent Crawl
TTITLE1=Just An Expression
TTITLE2=Contrition
TTITLE3=BK's Broiler
TTITLE4=Buzz Cut
TTITLE5=One Way Ticket
TTITLE6=Boomer's Thing
TTITLE7=Beast
TTITLE8=Will It Go 'Round In Circles
TTITLE9=Just A Closer Walk With Thee
EXTD=
EXTT0=
EXTT1=
EXTT2=
EXTT3=
EXTT4=
EXTT5=
EXTT6=
EXTT7=
EXTT8=
EXTT9=
PLAYORDER=
